<svg xmlns="http://www.w3.org/2000/svg" viewBox="32 80 144 104" width="576" height="416"><rect x="32" y="80" width="144" height="104" fill="white"/><g fill="none" stroke="black" stroke-width="1.4" stroke-linecap="round" stroke-linejoin="round"><polyline points="61,149.63603896932108 67,143.97918471982868 80,140.44365081389594 112,140.44365081389594 115,133.37258300203047 122,127.7157287525381 145,130.54415587728428"/><polyline points="80,134.78679656440357 80,140.44365081389594 80,146.10050506338834"/><polyline points="112,134.78679656440357 112,140.44365081389594 112,146.10050506338834"/><polyline points="80,134.78679656440357 90.59517216358363,138.77065944005722 82.75,146.10050506338834 86.75,150.34314575050763"/><polyline points="112,134.78679656440357 108.94407852680148,142.25878906806832 120.28125,145.0398448916085 121.28125,148.57537879754125"/><polyline points="80,146.10050506338834 76.98847476726725,154.31423490349795 64.75,157.4142135623731 68.75,161.65685424949237"/><polyline points="112,146.10050506338834 103.07331445865123,150.64551800318702 108.75,158.12132034355963 109.75,161.65685424949237"/></g></svg>